<?xml version="1.0" standalone="no"?>
<!DOCTYPE svg PUBLIC "-//W3C//DTD SVG 20010904//EN"
 "http://www.w3.org/TR/2001/REC-SVG-20010904/DTD/svg10.dtd">
<svg version="1.0" xmlns="http://www.w3.org/2000/svg" width="200px" viewBox="0 0 1870.000000 678.000000"
 preserveAspectRatio="xMidYMid meet">
<metadata>
Created by potrace 1.15, written by Peter Selinger 2001-2017
</metadata>
<g transform="translate(0.000000,678.000000) scale(0.100000,-0.100000)"
fill="#000000" stroke="none">
<path d="M17341 6769 c-211 -41 -395 -181 -555 -422 -262 -394 -405 -1013
-367 -1592 21 -318 70 -546 166 -768 122 -286 273 -470 670 -821 232 -205 443
-417 528 -531 130 -175 219 -387 270 -645 45 -223 52 -303 51 -560 0 -204 -4
-266 -22 -370 -55 -322 -160 -556 -322 -721 -125 -127 -221 -171 -374 -170
-286 1 -523 236 -720 713 -104 251 -197 613 -276 1072 -16 93 -31 171 -33 173
-3 2 -18 7 -34 12 l-30 9 -6 -277 c-4 -152 -7 -594 -7 -983 l0 -708 33 0 c32
0 34 3 51 58 34 111 94 172 168 172 39 0 91 -32 248 -149 224 -169 421 -246
660 -258 528 -26 932 356 1139 1078 72 252 109 503 118 794 15 522 -77 980
-273 1353 -157 300 -316 474 -790 870 -331 276 -409 354 -519 517 -188 280
-277 613 -262 975 19 433 170 814 379 953 89 59 166 79 278 75 199 -9 335
-108 480 -352 170 -285 285 -669 396 -1328 l29 -168 37 0 37 0 -5 353 c-2 193
-7 616 -10 940 l-6 587 -34 0 c-29 0 -35 -4 -40 -27 -36 -166 -80 -224 -151
-204 -48 14 -90 39 -259 152 -184 124 -280 173 -379 194 -76 16 -194 18 -264
4z"/>
<path d="M0 6562 l0 -59 78 -15 c175 -35 277 -116 361 -291 88 -181 116 -340
131 -747 12 -331 12 -3785 0 -4125 -14 -385 -42 -565 -115 -721 -89 -193 -192
-281 -378 -321 l-77 -16 0 -59 0 -58 635 0 635 0 0 60 0 59 -37 6 c-138 23
-224 66 -298 148 -96 106 -161 257 -195 452 -38 224 -41 415 -38 2671 l3 2171
1285 -2781 1285 -2781 68 -3 67 -3 0 2648 c0 2667 2 2861 36 3078 34 211 106
377 214 486 77 78 148 115 256 132 l75 12 -3 55 -3 55 -637 3 -638 2 0 -58 0
-59 82 -17 c196 -42 310 -151 397 -376 96 -248 103 -433 99 -2671 l-3 -1697
-1110 2439 -1110 2439 -532 0 -533 0 0 -58z"/>
<path d="M7330 6615 c0 -6 -1034 -4597 -1085 -4815 -150 -647 -264 -998 -406
-1246 -86 -150 -202 -248 -327 -275 l-52 -11 0 -59 0 -59 623 2 622 3 3 56 3
56 -66 18 c-206 55 -337 256 -376 575 -26 213 12 497 136 1025 29 127 83 365
120 530 36 165 68 308 71 318 5 16 43 17 605 17 329 0 599 -2 599 -4 0 -2 23
-100 50 -218 306 -1293 314 -1326 330 -1512 21 -238 -35 -454 -154 -592 -47
-55 -154 -109 -265 -135 l-91 -22 0 -58 0 -59 910 0 910 0 0 60 c0 57 -1 60
-27 66 -16 3 -68 17 -117 32 -283 83 -381 265 -586 1082 -63 254 -1260 5214
-1260 5224 0 3 -38 6 -85 6 -47 0 -85 -2 -85 -5z m420 -3657 c0 -5 -249 -8
-553 -8 l-553 0 270 1210 270 1210 283 -1203 c156 -661 283 -1205 283 -1209z"/>
<path d="M10960 6563 l0 -60 82 -16 c45 -9 110 -30 144 -47 140 -69 255 -255
304 -495 43 -207 43 -222 47 -2395 5 -2413 2 -2542 -62 -2787 -77 -294 -229
-453 -467 -487 l-48 -7 0 -60 0 -59 993 0 c1230 0 1411 8 1622 71 410 123 670
534 770 1219 22 151 31 516 16 691 -46 538 -206 984 -447 1239 -119 126 -240
197 -466 275 l-106 37 89 60 c235 157 382 356 479 647 146 436 149 1055 8
1481 -134 407 -362 640 -706 722 -85 20 -118 21 -1169 25 l-1083 5 0 -59z
m1760 -128 c278 -59 453 -283 565 -719 63 -245 79 -385 79 -696 1 -303 -10
-404 -64 -615 -59 -228 -144 -396 -263 -521 -58 -62 -87 -83 -161 -119 -159
-77 -312 -105 -565 -105 l-171 0 0 1401 0 1402 253 -6 c176 -4 275 -10 327
-22z m110 -2950 c119 -18 186 -38 275 -81 216 -105 358 -287 455 -584 150
-457 181 -1120 74 -1599 -89 -399 -287 -703 -537 -826 -116 -57 -186 -75 -312
-82 -304 -16 -485 138 -574 490 -60 232 -70 497 -71 1765 l0 932 298 0 c209 0
325 -4 392 -15z"/>
</g>
</svg>
